<mxfile host="app.diagrams.net" agent="Mozilla/5.0 (Windows NT 10.0; Win64; x64) AppleWebKit/537.36 (KHTML, like Gecko) Chrome/137.0.0.0 Safari/537.36" version="28.0.4">
  <diagram name="Page-1" id="e3a06f82-3646-2815-327d-82caf3d4e204">
    <mxGraphModel dx="2194" dy="1143" grid="1" gridSize="10" guides="1" tooltips="1" connect="1" arrows="1" fold="1" page="1" pageScale="1.5" pageWidth="1169" pageHeight="826" background="none" math="0" shadow="0">
      <root>
        <mxCell id="0" style=";html=1;" />
        <mxCell id="1" style=";html=1;" parent="0" />
        <mxCell id="DYjjqGvHHl9wesHmmYfs-54" value="" style="rounded=0;whiteSpace=wrap;html=1;fillColor=#fff2cc;strokeColor=#d6b656;" vertex="1" parent="1">
          <mxGeometry x="364.99999999999994" y="430" width="355.87" height="190" as="geometry" />
        </mxCell>
        <mxCell id="DYjjqGvHHl9wesHmmYfs-42" value="" style="rounded=0;whiteSpace=wrap;html=1;fillColor=#fff2cc;strokeColor=#d6b656;" vertex="1" parent="1">
          <mxGeometry x="580" y="800" width="280" height="190" as="geometry" />
        </mxCell>
        <mxCell id="DYjjqGvHHl9wesHmmYfs-36" value="" style="rounded=0;whiteSpace=wrap;html=1;fillColor=#d5e8d4;strokeColor=#82b366;" vertex="1" parent="1">
          <mxGeometry x="90" y="740" width="440" height="250" as="geometry" />
        </mxCell>
        <mxCell id="6a7d8f32e03d9370-2" value="Client" style="verticalLabelPosition=bottom;aspect=fixed;html=1;verticalAlign=top;strokeColor=none;shape=mxgraph.citrix.laptop_2;fillColor=#66B2FF;gradientColor=#0066CC;fontSize=14;" parent="1" vertex="1">
          <mxGeometry x="719.9999999999999" y="40" width="116" height="86.5" as="geometry" />
        </mxCell>
        <mxCell id="6a7d8f32e03d9370-26" value="" style="verticalLabelPosition=bottom;aspect=fixed;html=1;verticalAlign=top;strokeColor=none;shape=mxgraph.citrix.switch;fillColor=#66B2FF;gradientColor=#0066CC;fontSize=14;" parent="1" vertex="1">
          <mxGeometry x="730" y="252" width="130" height="58.64" as="geometry" />
        </mxCell>
        <mxCell id="DYjjqGvHHl9wesHmmYfs-2" value="" style="verticalLabelPosition=bottom;sketch=0;aspect=fixed;html=1;verticalAlign=top;strokeColor=none;align=center;outlineConnect=0;shape=mxgraph.citrix.database;" vertex="1" parent="1">
          <mxGeometry x="670" y="870" width="71.19" height="83.75" as="geometry" />
        </mxCell>
        <mxCell id="DYjjqGvHHl9wesHmmYfs-4" value="" style="verticalLabelPosition=bottom;sketch=0;aspect=fixed;html=1;verticalAlign=top;strokeColor=none;align=center;outlineConnect=0;shape=mxgraph.citrix.web_server;" vertex="1" parent="1">
          <mxGeometry x="417.94" y="510" width="76.5" height="90" as="geometry" />
        </mxCell>
        <mxCell id="DYjjqGvHHl9wesHmmYfs-8" value="" style="endArrow=none;html=1;rounded=0;exitX=0.741;exitY=0.775;exitDx=0;exitDy=0;exitPerimeter=0;entryX=0.585;entryY=0.4;entryDx=0;entryDy=0;entryPerimeter=0;" edge="1" parent="1" source="6a7d8f32e03d9370-2" target="6a7d8f32e03d9370-26">
          <mxGeometry width="50" height="50" relative="1" as="geometry">
            <mxPoint x="1080.0000000000005" y="245.18929577464792" as="sourcePoint" />
            <mxPoint x="1164" y="245" as="targetPoint" />
          </mxGeometry>
        </mxCell>
        <mxCell id="DYjjqGvHHl9wesHmmYfs-16" value="" style="verticalLabelPosition=bottom;sketch=0;aspect=fixed;html=1;verticalAlign=top;strokeColor=none;align=center;outlineConnect=0;shape=mxgraph.citrix.cache_server;" vertex="1" parent="1">
          <mxGeometry x="214.5" y="776.25" width="71" height="97.5" as="geometry" />
        </mxCell>
        <mxCell id="DYjjqGvHHl9wesHmmYfs-17" value="&lt;font style=&quot;font-size: 19px;&quot;&gt;redis集群&lt;/font&gt;" style="text;html=1;align=center;verticalAlign=middle;resizable=0;points=[];autosize=1;strokeColor=none;fillColor=none;" vertex="1" parent="1">
          <mxGeometry x="104.5" y="750" width="100" height="40" as="geometry" />
        </mxCell>
        <mxCell id="DYjjqGvHHl9wesHmmYfs-32" value="" style="verticalLabelPosition=bottom;sketch=0;aspect=fixed;html=1;verticalAlign=top;strokeColor=none;align=center;outlineConnect=0;shape=mxgraph.citrix.1u_2u_server;" vertex="1" parent="1">
          <mxGeometry x="220" y="260" width="127.87" height="50" as="geometry" />
        </mxCell>
        <mxCell id="DYjjqGvHHl9wesHmmYfs-37" value="" style="verticalLabelPosition=bottom;sketch=0;aspect=fixed;html=1;verticalAlign=top;strokeColor=none;align=center;outlineConnect=0;shape=mxgraph.citrix.cache_server;" vertex="1" parent="1">
          <mxGeometry x="274.5" y="776.25" width="71" height="97.5" as="geometry" />
        </mxCell>
        <mxCell id="DYjjqGvHHl9wesHmmYfs-38" value="" style="verticalLabelPosition=bottom;sketch=0;aspect=fixed;html=1;verticalAlign=top;strokeColor=none;align=center;outlineConnect=0;shape=mxgraph.citrix.cache_server;" vertex="1" parent="1">
          <mxGeometry x="334.5" y="776.25" width="71" height="97.5" as="geometry" />
        </mxCell>
        <mxCell id="DYjjqGvHHl9wesHmmYfs-39" value="" style="verticalLabelPosition=bottom;sketch=0;aspect=fixed;html=1;verticalAlign=top;strokeColor=none;align=center;outlineConnect=0;shape=mxgraph.citrix.cache_server;" vertex="1" parent="1">
          <mxGeometry x="214.5" y="860" width="71" height="97.5" as="geometry" />
        </mxCell>
        <mxCell id="DYjjqGvHHl9wesHmmYfs-40" value="" style="verticalLabelPosition=bottom;sketch=0;aspect=fixed;html=1;verticalAlign=top;strokeColor=none;align=center;outlineConnect=0;shape=mxgraph.citrix.cache_server;" vertex="1" parent="1">
          <mxGeometry x="274.5" y="860" width="71" height="97.5" as="geometry" />
        </mxCell>
        <mxCell id="DYjjqGvHHl9wesHmmYfs-41" value="" style="verticalLabelPosition=bottom;sketch=0;aspect=fixed;html=1;verticalAlign=top;strokeColor=none;align=center;outlineConnect=0;shape=mxgraph.citrix.cache_server;" vertex="1" parent="1">
          <mxGeometry x="334.5" y="860" width="71" height="97.5" as="geometry" />
        </mxCell>
        <mxCell id="DYjjqGvHHl9wesHmmYfs-43" value="&lt;font style=&quot;font-size: 19px;&quot;&gt;oracle集群&lt;/font&gt;" style="text;html=1;align=center;verticalAlign=middle;resizable=0;points=[];autosize=1;strokeColor=none;fillColor=none;" vertex="1" parent="1">
          <mxGeometry x="595" y="810" width="110" height="40" as="geometry" />
        </mxCell>
        <mxCell id="DYjjqGvHHl9wesHmmYfs-44" value="" style="verticalLabelPosition=bottom;sketch=0;aspect=fixed;html=1;verticalAlign=top;strokeColor=none;align=center;outlineConnect=0;shape=mxgraph.citrix.database;" vertex="1" parent="1">
          <mxGeometry x="741.19" y="866.88" width="71.19" height="83.75" as="geometry" />
        </mxCell>
        <mxCell id="DYjjqGvHHl9wesHmmYfs-45" value="&lt;font style=&quot;font-size: 19px;&quot;&gt;F5&lt;/font&gt;" style="text;html=1;align=center;verticalAlign=middle;resizable=0;points=[];autosize=1;strokeColor=none;fillColor=none;" vertex="1" parent="1">
          <mxGeometry x="885" y="261.32" width="50" height="40" as="geometry" />
        </mxCell>
        <mxCell id="DYjjqGvHHl9wesHmmYfs-46" value="&lt;span style=&quot;font-size: 19px;&quot;&gt;跳板机&lt;/span&gt;" style="text;html=1;align=center;verticalAlign=middle;resizable=0;points=[];autosize=1;strokeColor=none;fillColor=none;" vertex="1" parent="1">
          <mxGeometry x="365" y="261.32" width="80" height="40" as="geometry" />
        </mxCell>
        <mxCell id="DYjjqGvHHl9wesHmmYfs-47" value="" style="rounded=0;whiteSpace=wrap;html=1;fillColor=#d5e8d4;strokeColor=#82b366;" vertex="1" parent="1">
          <mxGeometry x="1350" y="800" width="360" height="190" as="geometry" />
        </mxCell>
        <mxCell id="DYjjqGvHHl9wesHmmYfs-49" value="&lt;font style=&quot;font-size: 19px;&quot;&gt;ES集群&lt;/font&gt;" style="text;html=1;align=center;verticalAlign=middle;resizable=0;points=[];autosize=1;strokeColor=none;fillColor=none;" vertex="1" parent="1">
          <mxGeometry x="1370" y="810" width="90" height="40" as="geometry" />
        </mxCell>
        <mxCell id="DYjjqGvHHl9wesHmmYfs-55" value="" style="verticalLabelPosition=bottom;sketch=0;aspect=fixed;html=1;verticalAlign=top;strokeColor=none;align=center;outlineConnect=0;shape=mxgraph.citrix.web_server;" vertex="1" parent="1">
          <mxGeometry x="599.69" y="510" width="76.5" height="90" as="geometry" />
        </mxCell>
        <mxCell id="DYjjqGvHHl9wesHmmYfs-56" value="&lt;font style=&quot;font-size: 19px;&quot;&gt;143&lt;/font&gt;" style="text;html=1;align=center;verticalAlign=middle;resizable=0;points=[];autosize=1;strokeColor=none;fillColor=none;" vertex="1" parent="1">
          <mxGeometry x="423.53000000000003" y="460" width="60" height="40" as="geometry" />
        </mxCell>
        <mxCell id="DYjjqGvHHl9wesHmmYfs-57" value="&lt;font style=&quot;font-size: 19px;&quot;&gt;144&lt;/font&gt;" style="text;html=1;align=center;verticalAlign=middle;resizable=0;points=[];autosize=1;strokeColor=none;fillColor=none;" vertex="1" parent="1">
          <mxGeometry x="607.94" y="460" width="60" height="40" as="geometry" />
        </mxCell>
        <mxCell id="DYjjqGvHHl9wesHmmYfs-58" value="Client" style="verticalLabelPosition=bottom;aspect=fixed;html=1;verticalAlign=top;strokeColor=none;shape=mxgraph.citrix.laptop_2;fillColor=#66B2FF;gradientColor=#0066CC;fontSize=14;" vertex="1" parent="1">
          <mxGeometry x="225.92999999999995" y="40" width="116" height="86.5" as="geometry" />
        </mxCell>
        <mxCell id="DYjjqGvHHl9wesHmmYfs-59" value="" style="rounded=0;whiteSpace=wrap;html=1;fillColor=#fff2cc;strokeColor=#d6b656;" vertex="1" parent="1">
          <mxGeometry x="836" y="430" width="355.87" height="190" as="geometry" />
        </mxCell>
        <mxCell id="DYjjqGvHHl9wesHmmYfs-60" value="" style="verticalLabelPosition=bottom;sketch=0;aspect=fixed;html=1;verticalAlign=top;strokeColor=none;align=center;outlineConnect=0;shape=mxgraph.citrix.web_server;" vertex="1" parent="1">
          <mxGeometry x="896" y="510" width="76.5" height="90" as="geometry" />
        </mxCell>
        <mxCell id="DYjjqGvHHl9wesHmmYfs-61" value="" style="verticalLabelPosition=bottom;sketch=0;aspect=fixed;html=1;verticalAlign=top;strokeColor=none;align=center;outlineConnect=0;shape=mxgraph.citrix.web_server;" vertex="1" parent="1">
          <mxGeometry x="1086" y="510" width="76.5" height="90" as="geometry" />
        </mxCell>
        <mxCell id="DYjjqGvHHl9wesHmmYfs-82" style="edgeStyle=orthogonalEdgeStyle;rounded=0;orthogonalLoop=1;jettySize=auto;html=1;entryX=0.5;entryY=0;entryDx=0;entryDy=0;" edge="1" parent="1" source="DYjjqGvHHl9wesHmmYfs-62" target="DYjjqGvHHl9wesHmmYfs-75">
          <mxGeometry relative="1" as="geometry" />
        </mxCell>
        <mxCell id="DYjjqGvHHl9wesHmmYfs-62" value="" style="verticalLabelPosition=bottom;sketch=0;aspect=fixed;html=1;verticalAlign=top;strokeColor=none;align=center;outlineConnect=0;shape=mxgraph.citrix.cell_phone;" vertex="1" parent="1">
          <mxGeometry x="1506.19" y="40" width="25" height="60" as="geometry" />
        </mxCell>
        <mxCell id="DYjjqGvHHl9wesHmmYfs-84" style="edgeStyle=orthogonalEdgeStyle;rounded=0;orthogonalLoop=1;jettySize=auto;html=1;entryX=0.5;entryY=0;entryDx=0;entryDy=0;exitX=0.534;exitY=1;exitDx=0;exitDy=0;exitPerimeter=0;" edge="1" parent="1" source="DYjjqGvHHl9wesHmmYfs-63" target="DYjjqGvHHl9wesHmmYfs-42">
          <mxGeometry relative="1" as="geometry">
            <mxPoint x="1499.4649999999995" y="659.68" as="sourcePoint" />
            <mxPoint x="771.53" y="990.31" as="targetPoint" />
            <Array as="points">
              <mxPoint x="1530" y="730" />
              <mxPoint x="720" y="730" />
            </Array>
          </mxGeometry>
        </mxCell>
        <mxCell id="DYjjqGvHHl9wesHmmYfs-63" value="" style="rounded=0;whiteSpace=wrap;html=1;fillColor=#fff2cc;strokeColor=#d6b656;" vertex="1" parent="1">
          <mxGeometry x="1340" y="430" width="355.87" height="190" as="geometry" />
        </mxCell>
        <mxCell id="DYjjqGvHHl9wesHmmYfs-64" value="" style="verticalLabelPosition=bottom;sketch=0;aspect=fixed;html=1;verticalAlign=top;strokeColor=none;align=center;outlineConnect=0;shape=mxgraph.citrix.web_server;" vertex="1" parent="1">
          <mxGeometry x="1400" y="510" width="76.5" height="90" as="geometry" />
        </mxCell>
        <mxCell id="DYjjqGvHHl9wesHmmYfs-65" value="" style="verticalLabelPosition=bottom;sketch=0;aspect=fixed;html=1;verticalAlign=top;strokeColor=none;align=center;outlineConnect=0;shape=mxgraph.citrix.web_server;" vertex="1" parent="1">
          <mxGeometry x="1590" y="510" width="76.5" height="90" as="geometry" />
        </mxCell>
        <mxCell id="DYjjqGvHHl9wesHmmYfs-66" value="" style="rounded=0;whiteSpace=wrap;html=1;fillColor=#fff2cc;strokeColor=#d6b656;" vertex="1" parent="1">
          <mxGeometry x="960" y="800" width="280" height="190" as="geometry" />
        </mxCell>
        <mxCell id="DYjjqGvHHl9wesHmmYfs-68" value="&lt;font style=&quot;font-size: 19px;&quot;&gt;FastDFS集群&lt;/font&gt;" style="text;html=1;align=center;verticalAlign=middle;resizable=0;points=[];autosize=1;strokeColor=none;fillColor=none;" vertex="1" parent="1">
          <mxGeometry x="960" y="810" width="140" height="40" as="geometry" />
        </mxCell>
        <mxCell id="DYjjqGvHHl9wesHmmYfs-70" value="" style="verticalLabelPosition=bottom;sketch=0;aspect=fixed;html=1;verticalAlign=top;strokeColor=none;align=center;outlineConnect=0;shape=mxgraph.citrix.file_server;" vertex="1" parent="1">
          <mxGeometry x="1040" y="863.37" width="71" height="97" as="geometry" />
        </mxCell>
        <mxCell id="DYjjqGvHHl9wesHmmYfs-71" value="" style="verticalLabelPosition=bottom;sketch=0;aspect=fixed;html=1;verticalAlign=top;strokeColor=none;align=center;outlineConnect=0;shape=mxgraph.citrix.file_server;" vertex="1" parent="1">
          <mxGeometry x="1100" y="863.37" width="71" height="97" as="geometry" />
        </mxCell>
        <mxCell id="DYjjqGvHHl9wesHmmYfs-72" value="" style="verticalLabelPosition=bottom;sketch=0;aspect=fixed;html=1;verticalAlign=top;strokeColor=none;align=center;outlineConnect=0;shape=mxgraph.citrix.router;" vertex="1" parent="1">
          <mxGeometry x="1400" y="873.75" width="84.38" height="56" as="geometry" />
        </mxCell>
        <mxCell id="DYjjqGvHHl9wesHmmYfs-73" value="" style="verticalLabelPosition=bottom;sketch=0;aspect=fixed;html=1;verticalAlign=top;strokeColor=none;align=center;outlineConnect=0;shape=mxgraph.citrix.router;" vertex="1" parent="1">
          <mxGeometry x="1476.5" y="873.75" width="84.38" height="56" as="geometry" />
        </mxCell>
        <mxCell id="DYjjqGvHHl9wesHmmYfs-74" value="" style="verticalLabelPosition=bottom;sketch=0;aspect=fixed;html=1;verticalAlign=top;strokeColor=none;align=center;outlineConnect=0;shape=mxgraph.citrix.router;" vertex="1" parent="1">
          <mxGeometry x="1560.88" y="873.75" width="84.38" height="56" as="geometry" />
        </mxCell>
        <mxCell id="DYjjqGvHHl9wesHmmYfs-83" style="edgeStyle=orthogonalEdgeStyle;rounded=0;orthogonalLoop=1;jettySize=auto;html=1;entryX=0.5;entryY=0;entryDx=0;entryDy=0;" edge="1" parent="1" source="DYjjqGvHHl9wesHmmYfs-75" target="DYjjqGvHHl9wesHmmYfs-63">
          <mxGeometry relative="1" as="geometry" />
        </mxCell>
        <mxCell id="DYjjqGvHHl9wesHmmYfs-75" value="" style="rounded=0;whiteSpace=wrap;html=1;fillColor=#fff2cc;strokeColor=#d6b656;" vertex="1" parent="1">
          <mxGeometry x="1340" y="170" width="355.87" height="190" as="geometry" />
        </mxCell>
        <mxCell id="DYjjqGvHHl9wesHmmYfs-78" value="" style="verticalLabelPosition=bottom;sketch=0;aspect=fixed;html=1;verticalAlign=top;strokeColor=none;align=center;outlineConnect=0;shape=mxgraph.citrix.desktop_web;" vertex="1" parent="1">
          <mxGeometry x="1403.94" y="236.32" width="76.5" height="90" as="geometry" />
        </mxCell>
        <mxCell id="DYjjqGvHHl9wesHmmYfs-79" value="" style="verticalLabelPosition=bottom;sketch=0;aspect=fixed;html=1;verticalAlign=top;strokeColor=none;align=center;outlineConnect=0;shape=mxgraph.citrix.desktop_web;" vertex="1" parent="1">
          <mxGeometry x="1580" y="236.32" width="76.5" height="90" as="geometry" />
        </mxCell>
        <mxCell id="DYjjqGvHHl9wesHmmYfs-80" value="&lt;span style=&quot;font-size: 19px;&quot;&gt;移动运维前端&lt;/span&gt;" style="text;html=1;align=center;verticalAlign=middle;resizable=0;points=[];autosize=1;strokeColor=none;fillColor=none;" vertex="1" parent="1">
          <mxGeometry x="1345" y="180" width="140" height="40" as="geometry" />
        </mxCell>
        <mxCell id="DYjjqGvHHl9wesHmmYfs-81" value="&lt;span style=&quot;font-size: 19px;&quot;&gt;移动运维后端&lt;/span&gt;" style="text;html=1;align=center;verticalAlign=middle;resizable=0;points=[];autosize=1;strokeColor=none;fillColor=none;" vertex="1" parent="1">
          <mxGeometry x="1350" y="440" width="140" height="40" as="geometry" />
        </mxCell>
      </root>
    </mxGraphModel>
  </diagram>
</mxfile>
